<?xml version="1.0" standalone="no"?><!DOCTYPE svg PUBLIC "-//W3C//DTD SVG 1.1//EN" "http://www.w3.org/Graphics/SVG/1.1/DTD/svg11.dtd"><svg t="1725346165272" class="icon" viewBox="0 0 1024 1024" version="1.1" xmlns="http://www.w3.org/2000/svg" p-id="4403" width="200" height="200" xmlns:xlink="http://www.w3.org/1999/xlink"><path d="M512.5 959.5c-247 0-448-201-448-448s201-448 448-448 448 201 448 448-201 448-448 448z m0-844.6c-218.7 0-396.6 177.9-396.6 396.6S293.8 908 512.5 908 909 730.1 909 511.5 731.1 114.9 512.5 114.9z" fill="#d7dae0" p-id="4404"></path><path d="M768 673.3c25.8 25.8 25.8 67.8 0 93.6-12.5 12.5-29.2 19.4-46.8 19.4-17.6 0-34.3-6.9-46.8-19.4l-88.5-88.5-13.5 13.6-39.5-39.5 46.2-46.1-41.7-41.7-66.2 66.1c10 40.1-1.5 82.6-31.3 112.4-22.4 22.4-52.2 34.8-83.9 34.8-16.3 0-32.2-3.3-47.1-9.7L271.1 752l57.5-57.5 0.1-8.8-7.1 0.1-58.3 58.3-10.7-24.8-5.6-12.9c-19.5-45-9.7-96.6 25-131.2 22.4-22.4 52.2-34.8 83.9-34.8 9.7 0 19.3 1.2 28.6 3.5l70-70.1-91.5-86.5-20.5 20.6L242 307.5l66.6-66.5 100.3 100.3-17.9 18 90.8 87 63.1-63c-10.1-40.2 1.5-82.7 31.3-112.5 22.4-22.4 52.2-34.8 83.9-34.8 16.4 0 32.3 3.3 47.3 9.8l37.7 16.3-58.3 58.3-0.1 7.2 8.8-0.1L753 270l10.7 24.9 5.6 12.9c19.4 44.9 9.6 96.4-25 131-22.4 22.4-52.3 34.7-83.9 34.7-9.7 0-19.2-1.2-28.5-3.4l-66.9 67 41.7 41.7 46.8-47 39.5 39.5-13.5 13.5 88.5 88.5z m-137-67l-3.7 3.7-20.6 20.7-8.3 8.2 0.5 0.5L700.3 741c5.6 5.6 12.9 8.6 20.8 8.6s15.2-3 20.8-8.6c11.5-11.5 11.5-30.2 0-41.7L640 597.3l-9 9z m-9.2-178.1l10.9 3.9c8.9 3.2 18.1 4.7 27.6 4.7 21.9 0 42.4-8.5 57.9-24 20.7-20.7 28.6-50.1 21.6-77.8L711 364l-61.4 0.8 0.8-59.8 29.8-29.8c-6.5-1.6-13.2-2.4-20-2.4-21.9 0-42.4 8.5-57.9 24-22.6 22.6-30 55.6-19.2 85.6l3.9 11-79.9 79.6-112.7 112.8-11-3.9c-8.9-3.2-18.1-4.8-27.7-4.8-21.9 0-42.4 8.5-57.9 24-20.8 20.8-28.6 50.2-21.6 77.9l29.8-29.8 59.8-0.8-0.8 61.4-28.9 28.9c6.4 1.6 13.1 2.4 19.8 2.4 21.9 0 42.4-8.5 57.9-24 22.6-22.6 30-55.6 19.3-85.5l-3.9-10.9 105.4-105.3 87.2-87.2zM308.6 292.9L294 307.5l48.4 48.4 14.6-14.6-48.4-48.4z" fill="#d7dae0" p-id="4405"></path></svg>