<?xml version="1.0" standalone="no"?><!DOCTYPE svg PUBLIC "-//W3C//DTD SVG 1.1//EN" "http://www.w3.org/Graphics/SVG/1.1/DTD/svg11.dtd"><svg t="1774234491947" class="icon" viewBox="0 0 1024 1024" version="1.1" xmlns="http://www.w3.org/2000/svg" p-id="4304" xmlns:xlink="http://www.w3.org/1999/xlink" width="128" height="128"><path d="M855.8 499.1c8.9-3.9 17.8-7.7 32.1-13.9-88.9-9.9-149-49.6-179.4-133.3h45.7c-45.4-50.8-89.6-103.9-137.8-153.1-57-58.1-130.8-82.6-209.6-95.4-4.9 10.6-9 19.4-11.7 25.2-11.7-10.8-22.3-29-33.2-29.1-58.5-0.9-115 12.3-170.2 33.9 1.8 11.3 3.3 20.6 4.7 29.3-11.4-6.1-25.9-18.8-31.1-15.8-27.9 16.1-53.4 36.3-82.2 56.7 15.1 11.4 23.2 17.5 35.3 26.6-18.2 3.5-32.3 6.3-54.4 10.6 41.6 17.9 75.6 32.6 111.8 48.2-65.6 67.6-91.6 145.7-89.4 233 1.3 51.4 9 102.7 11.5 154.1 2 41.4 0.4 83 0.4 130.5 23.9-12.1 40.5-20.5 56.9-28.9 31.7 44.7 13.5 93.6 15.7 145.4 27-1.9 58.9 5.6 75.8-7 71.7-53.3 163.7-84 200.8-175.4 76.8 13.9 150.4 27.3 228.8 41.5-17.7-29.3-33.1-55.4-49.2-81.1-19.6-31.3-35.6-62.6-3.1-97.1-10-5.6-17.1-9.5-24.7-13.8 4.6-19.6 9-38 14.6-62.1 61.8 47.1 129.1 64.5 203.6 58 71.6-6.2 139.4-20.5 195.6-70.3-54.2-2.8-105.6-5.5-157-8.2-0.1-2.8-0.2-5.7-0.3-8.5z m-592.4 70c-20 16.2-34.6 28.1-49.4 40.2-14-24.3-4.6-32.4 49.4-40.2z m351.1 170.3c-87.4-23.5-172.6-46.4-258.2-69.5 9.4 14.4 21.8 30.8 31.2 48.8 3.9 7.4 5.1 20.9 0.9 27.1-40.7 59.6-97.5 97.3-170.3 121.8 3.5-49.2 6.6-94.4 9.9-139.6 1.8-24.7 2.8-76.2 4.8-101l17.2-11.5s22.2 20.3 28.7 22.9c3.3-7.5-5.7-40.1-5.7-40.1s26.6-28.2 34.4-45.9c-13-4.5-34.4-11.5-57.3-5.7 0 0-17.2-22.9-22.9-34.4v40.1c-17.2 5.7-63.1 22.9-51.6 45.9 1.7 3.3 17.2 63.1 17.2 63.1s-20.1 35.9-56.3 75.4c8.6-104.7-32.1-201.5 0.6-298.8 10.7-31.8 27-74.6 50-97.6-5.7 34.4 51.6 91.7 80.3 108.9-45.9-68.8-40.1-91.7-40.1-91.7s5.2-6.9 11.2-10.6c122.3-76.4 303.1-11.5 332.2 130.5 3 14.9 4.7 30.3 4.7 45.4-0.1 60.8-14.9 73.6-75.8 67.8-3.4-0.3-33.8-9.8-37.2-9.6-0.7 2.6 25.4 15.4 24.7 18 25.2 10.3 50.4 20.5 66.4 27.1 21.5 40.3 40 74.4 61 113.2z m-364.8-463c82.5-27.9 157.3-14.9 226.8 34.3-70.7-31.3-141.9-32.7-214.2-3.7-3.5-6.3-6-10.1-7.7-14.3-1.7-4.3-2.7-8.9-4.9-16.3z m631 270.6c-45.6 1.6-92 7.2-136.8 1.3-73.7-9.7-117.4-62.3-151.4-123.8-13.4-24.2-24.4-49.9-39.6-72.9-64.3-96.7-199.2-136.5-307.4-93.7-16.2 6.4-36.1 3.6-54.3 5.1l-2.1-7.2c4.1-3.5 8.2-6.9 14-11.8-19.2-12.6-37.8-24.9-56.5-37.2-0.4-2.8-0.7-5.6-1.1-8.5 13.6-3 28.7-11 40.5-7.6 14.3 4.1 25.8 17.8 39.8 28.2 1.7-4.9 3.3-7.3 3.2-9.8-1.3-53.4-1.3-53.4 51.6-64.3 0.9-0.2 1.9-0.3 2.8-0.5 71.5-14.2 71.5-14.2 109 48.1 2.3 3.8 5.4 7.1 11 14.4 4.5-23.6 8.1-42.8 11.7-61.5 66.9 0.7 144 51.3 258.2 169.6-12.7-3.1-19.6-4.7-30-7.2 30.6 78.3 57.4 154.7 148.2 179.8-6.3 0-12.7 0.5-19-0.1-6.5-0.6-12.9-2.3-20.2-0.8 46.6 40.6 106.2 39 163.7 52.6-11.7 2.6-23.4 7.4-35.3 7.8z" p-id="4305"></path></svg>